<svg xmlns="http://www.w3.org/2000/svg" viewBox="0 0 512 512">
  <rect width="512" height="512" fill="none"/>
  <g fill="none" stroke="#8c1515" stroke-linecap="round" stroke-linejoin="round">
    <circle cx="256" cy="256" r="214" stroke-width="14"/>
    <path d="M81 292c-20-112 47-226 159-266 69-24 146-17 207 23" stroke-width="14"/>
    <path d="M98 317c-12-96 42-192 135-229 59-24 126-22 182 5" stroke-width="12"/>
    <path d="M196 116c48-16 103-14 149 6" stroke="#eadfdf" stroke-width="10"/>
  </g>
  <g fill="#8c1515">
    <path d="M140 347c0-95 77-172 172-172s172 77 172 172v43H140z"/>
    <rect x="356" y="78" width="18" height="126" rx="9" transform="rotate(-34 365 141)"/>
    <circle cx="427" cy="84" r="30"/>
  </g>
  <g fill="#000">
    <circle cx="206" cy="307" r="33"/>
    <circle cx="302" cy="307" r="33"/>
  </g>
</svg>
